<?xml version="1.0" encoding="UTF-8" standalone="no"?>
<!DOCTYPE svg PUBLIC "-//W3C//DTD SVG 1.1//EN"
 "http://www.w3.org/Graphics/SVG/1.1/DTD/svg11.dtd">
<!-- Generated by graphviz version 2.38.0 (20140413.2041)
 -->
<!-- Title: spade2dot Pages: 1 -->
<svg width="978pt" height="104pt"
 viewBox="0.00 0.00 977.99 104.00" xmlns="http://www.w3.org/2000/svg" xmlns:xlink="http://www.w3.org/1999/xlink">
<g id="graph0" class="graph" transform="scale(1 1) rotate(0) translate(4 100)">
<title>spade2dot</title>
<polygon fill="white" stroke="none" points="-4,4 -4,-100 973.988,-100 973.988,4 -4,4"/>
<!-- 1 -->
<g id="node1" class="node"><title>1</title>
<polygon fill="#9aff9a" stroke="black" points="857.199,-96 744.621,-48 857.199,-1.42109e-14 969.778,-48 857.199,-96"/>
<text text-anchor="middle" x="857.199" y="-65.6" font-family="Helvetica,sans-Serif" font-size="8.00">remote port:https</text>
<text text-anchor="middle" x="857.199" y="-57.6" font-family="Helvetica,sans-Serif" font-size="8.00">subtype:network</text>
<text text-anchor="middle" x="857.199" y="-49.6" font-family="Helvetica,sans-Serif" font-size="8.00">remote host:23.227.196.217</text>
<text text-anchor="middle" x="857.199" y="-41.6" font-family="Helvetica,sans-Serif" font-size="8.00">local host:DESKTOP&#45;72G3VFO</text>
<text text-anchor="middle" x="857.199" y="-33.6" font-family="Helvetica,sans-Serif" font-size="8.00">type:Artifact</text>
<text text-anchor="middle" x="857.199" y="-25.6" font-family="Helvetica,sans-Serif" font-size="8.00">local port:49683</text>
</g>
<!-- 2 -->
<g id="node2" class="node"><title>2</title>
<polygon fill="#cae1ff" stroke="black" points="574.977,-88 0.00781229,-88 0.00781229,-8 574.977,-8 574.977,-88"/>
<text text-anchor="middle" x="287.492" y="-81.6" font-family="Helvetica,sans-Serif" font-size="8.00">description:</text>
<text text-anchor="middle" x="287.492" y="-73.6" font-family="Helvetica,sans-Serif" font-size="8.00">pid:3588</text>
<text text-anchor="middle" x="287.492" y="-65.6" font-family="Helvetica,sans-Serif" font-size="8.00">type:Process</text>
<text text-anchor="middle" x="287.492" y="-57.6" font-family="Helvetica,sans-Serif" font-size="8.00">version:</text>
<text text-anchor="middle" x="287.492" y="-49.6" font-family="Helvetica,sans-Serif" font-size="8.00">commandline:C:\Users\mathieu\Downloads\Malware\executable\APT29_2016&#45;06_Crowdstrike_Bears_74C190CD0C42304720C686D50F8184AC3FADDBE9.exe </text>
<text text-anchor="middle" x="287.492" y="-41.6" font-family="Helvetica,sans-Serif" font-size="8.00">ppid:3708</text>
<text text-anchor="middle" x="287.492" y="-33.6" font-family="Helvetica,sans-Serif" font-size="8.00">imagepath:C:\Users\mathieu\Downloads\Malware\executable\APT29_2016&#45;06_Crowdstrike_Bears_74C190CD0C42304720C686D50F8184AC3FADDBE9.exe</text>
<text text-anchor="middle" x="287.492" y="-25.6" font-family="Helvetica,sans-Serif" font-size="8.00">name:APT29_2016&#45;06_Crowdstrike_Bears_74C190CD0C42304720C686D50F8184AC3FADDBE9.exe</text>
<text text-anchor="middle" x="287.492" y="-17.6" font-family="Helvetica,sans-Serif" font-size="8.00">company:</text>
<text text-anchor="middle" x="287.492" y="-9.6" font-family="Helvetica,sans-Serif" font-size="8.00">arch:64&#45;bit</text>
</g>
<!-- 1&#45;&gt;2 -->
<g id="edge1" class="edge"><title>1&#45;&gt;2</title>
<path fill="none" stroke="red" d="M756.304,-53.0838C746.208,-53.4579 736.107,-53.776 726.41,-54 680.726,-55.0554 632.355,-55.2846 585.079,-55.0173"/>
<polygon fill="red" stroke="red" points="585.03,-51.517 575.008,-54.9528 584.986,-58.5169 585.03,-51.517"/>
<text text-anchor="middle" x="659.697" y="-80.6" font-family="Helvetica,sans-Serif" font-size="8.00">(time:10:16:04.2565908 AM</text>
<text text-anchor="middle" x="659.697" y="-72.6" font-family="Helvetica,sans-Serif" font-size="8.00">detail:Length: 0, seqnum: 0, connid: 0</text>
<text text-anchor="middle" x="659.697" y="-64.6" font-family="Helvetica,sans-Serif" font-size="8.00">type:WasGeneratedBy</text>
<text text-anchor="middle" x="659.697" y="-56.6" font-family="Helvetica,sans-Serif" font-size="8.00">operation:TCP Reconnect)</text>
</g>
<!-- 1&#45;&gt;2 -->
<g id="edge2" class="edge"><title>1&#45;&gt;2</title>
<path fill="none" stroke="red" d="M788.336,-29.2562C768.532,-24.6208 746.746,-20.3196 726.41,-18 680.817,-12.7993 632.444,-11.7051 585.12,-13.0733"/>
<polygon fill="red" stroke="red" points="584.919,-9.57788 575.039,-13.402 585.148,-16.5742 584.919,-9.57788"/>
<text text-anchor="middle" x="659.697" y="-43.6" font-family="Helvetica,sans-Serif" font-size="8.00">(time:10:15:58.2417253 AM</text>
<text text-anchor="middle" x="659.697" y="-35.6" font-family="Helvetica,sans-Serif" font-size="8.00">detail:Length: 0, seqnum: 0, connid: 0</text>
<text text-anchor="middle" x="659.697" y="-27.6" font-family="Helvetica,sans-Serif" font-size="8.00">type:WasGeneratedBy</text>
<text text-anchor="middle" x="659.697" y="-19.6" font-family="Helvetica,sans-Serif" font-size="8.00">operation:TCP Reconnect)</text>
</g>
</g>
</svg>
